<svg width="30" height="30" viewBox="0 0 80 80" fill="none" xmlns="http://www.w3.org/2000/svg">
<linearGradient id="linear-gradient">
  <stop offset="0%" stop-color="#fdf497"/>
  <stop offset="5%" stop-color="#fdf497"/>
  <stop offset="45%" stop-color="#fd5949"/>
  <stop offset="60%" stop-color="#d6249f"/>
  <stop offset="90%" stop-color="#285AEB"/>
</linearGradient>
<g id="Instagram" clip-path="url(#clip0)">
<g id="Instagram_2">
<path id="Path" d="M39.9607 0.698364C17.9849 0.698364 0.149475 18.5338 0.149475 40.5096C0.149475 62.4854 17.9849 80.3209 39.9607 80.3209C61.9366 80.3209 79.772 62.4854 79.772 40.5096C79.772 18.5338 61.9366 0.698364 39.9607 0.698364Z" fill="url(#linear-gradient)"/>
<path id="Vector" d="M31.669 40.5096C31.669 35.9291 35.3812 32.2149 39.9617 32.2149C44.5422 32.2149 48.2564 35.9291 48.2564 40.5096C48.2564 45.0901 44.5422 48.8043 39.9617 48.8043C35.3812 48.8043 31.669 45.0901 31.669 40.5096ZM27.1851 40.5096C27.1851 47.5662 32.9052 53.2862 39.9617 53.2862C47.0183 53.2862 52.7383 47.5662 52.7383 40.5096C52.7383 33.4531 47.0183 27.733 39.9617 27.733C32.9052 27.733 27.1851 33.4531 27.1851 40.5096ZM50.2583 27.2264C50.2581 27.8169 50.433 28.3943 50.7608 28.8854C51.0887 29.3766 51.5549 29.7595 52.1004 29.9857C52.6459 30.2119 53.2463 30.2713 53.8255 30.1563C54.4047 30.0413 54.9369 29.7571 55.3546 29.3397C55.7724 28.9223 56.0569 28.3904 56.1724 27.8113C56.2878 27.2321 56.2289 26.6317 56.0032 26.086C55.7774 25.5404 55.3949 25.0739 54.904 24.7456C54.4131 24.4173 53.8359 24.242 53.2453 24.2417H53.2442C52.4526 24.2421 51.6935 24.5566 51.1337 25.1162C50.5738 25.6759 50.259 26.4348 50.2583 27.2264ZM29.9094 60.763C27.4835 60.6525 26.1649 60.2484 25.2887 59.907C24.127 59.4548 23.2981 58.9161 22.4267 58.0459C21.5552 57.1756 21.0157 56.3475 20.5655 55.1858C20.2239 54.31 19.8198 52.991 19.7095 50.5651C19.5889 47.9424 19.5648 47.1545 19.5648 40.5098C19.5648 33.8651 19.5909 33.0794 19.7095 30.4545C19.82 28.0286 20.2271 26.7122 20.5655 25.8338C21.0177 24.6721 21.5564 23.8432 22.4267 22.9717C23.2969 22.1003 24.125 21.5608 25.2887 21.1106C26.1645 20.769 27.4835 20.3649 29.9094 20.2546C32.5321 20.134 33.32 20.1099 39.9617 20.1099C46.6034 20.1099 47.3921 20.136 50.0171 20.2546C52.443 20.3651 53.7593 20.7722 54.6377 21.1106C55.7994 21.5608 56.6283 22.1015 57.4998 22.9717C58.3712 23.842 58.9087 24.6721 59.361 25.8338C59.7025 26.7096 60.1066 28.0286 60.2169 30.4545C60.3375 33.0794 60.3616 33.8651 60.3616 40.5098C60.3616 47.1545 60.3375 47.9402 60.2169 50.5651C60.1064 52.991 59.7003 54.3096 59.361 55.1858C58.9087 56.3475 58.3701 57.1764 57.4998 58.0459C56.6295 58.9154 55.7994 59.4548 54.6377 59.907C53.7619 60.2486 52.443 60.6527 50.0171 60.763C47.3943 60.8836 46.6064 60.9077 39.9617 60.9077C33.317 60.9077 32.5313 60.8836 29.9094 60.763ZM29.7034 15.7782C27.0545 15.8989 25.2445 16.3189 23.6638 16.934C22.0267 17.5692 20.6409 18.4213 19.2561 19.804C17.8712 21.1866 17.0213 22.5746 16.3861 24.2117C15.771 25.7934 15.351 27.6024 15.2304 30.2512C15.1077 32.9043 15.0797 33.7524 15.0797 40.5096C15.0797 47.2668 15.1077 48.115 15.2304 50.768C15.351 53.417 15.771 55.2258 16.3861 56.8075C17.0213 58.4436 17.8714 59.8332 19.2561 61.2152C20.6407 62.5973 22.0267 63.4483 23.6638 64.0852C25.2475 64.7003 27.0545 65.1203 29.7034 65.241C32.3578 65.3616 33.2046 65.3916 39.9617 65.3916C46.7189 65.3916 47.5671 65.3636 50.2201 65.241C52.8691 65.1203 54.678 64.7003 56.2597 64.0852C57.8957 63.4483 59.2825 62.5979 60.6674 61.2152C62.0522 59.8326 62.9004 58.4436 63.5374 56.8075C64.1524 55.2258 64.5744 53.4168 64.6931 50.768C64.8137 48.113 64.8418 47.2668 64.8418 40.5096C64.8418 33.7524 64.8137 32.9043 64.6931 30.2512C64.5724 27.6022 64.1524 25.7924 63.5374 24.2117C62.9004 22.5756 62.05 21.1888 60.6674 19.804C59.2847 18.4191 57.8957 17.5692 56.2617 16.934C54.678 16.3189 52.8689 15.8969 50.2221 15.7782C47.5691 15.6576 46.7209 15.6276 39.9637 15.6276C33.2065 15.6276 32.3578 15.6556 29.7034 15.7782Z" fill="white"/>
</g>
</g>
<defs>
<clipPath id="clip0">
<rect width="79.6225" height="79.6225" fill="white" transform="translate(0.149475 0.698364)"/>
</clipPath>
</defs>
</svg>
