<svg width="30" height="30" viewBox="0 0 80 80" fill="none" xmlns="http://www.w3.org/2000/svg">
<g id="Vkontakte (VK)" clip-path="url(#clip0)">
<g id="Vkontakte (VK)_2">
<path id="Path" d="M40.801 0.085022C18.8252 0.085022 0.989746 17.9205 0.989746 39.8963C0.989746 61.8721 18.8252 79.7076 40.801 79.7076C62.7768 79.7076 80.6123 61.8721 80.6123 39.8963C80.6123 17.9205 62.7768 0.085022 40.801 0.085022Z" fill="#5181B8"/>
<path id="Vector" fill-rule="evenodd" clip-rule="evenodd" d="M66.124 27.5127C66.4931 26.2824 66.124 25.3781 64.3677 25.3781H58.5606C57.0839 25.3781 56.4036 26.1592 56.0345 27.0207C56.0345 27.0207 53.0811 34.2187 48.8974 38.8943C47.544 40.2478 46.9288 40.6779 46.1905 40.6779C45.8213 40.6779 45.287 40.2478 45.287 39.0175V27.5127C45.287 26.036 44.8586 25.3781 43.6279 25.3781H34.5023C33.5798 25.3781 33.0248 26.0634 33.0248 26.7129C33.0248 28.1129 35.1162 28.4356 35.3319 32.3728V40.9247C35.3319 42.7996 34.9934 43.1397 34.2551 43.1397C32.2865 43.1397 27.498 35.909 24.6575 27.6359C24.1008 26.0277 23.5425 25.3781 22.0584 25.3781H16.2512C14.592 25.3781 14.2602 26.1592 14.2602 27.0207C14.2602 28.5588 16.2292 36.1877 23.4272 46.2773C28.2264 53.1671 34.9868 56.9027 41.1391 56.9027C44.8308 56.9027 45.287 56.0731 45.287 54.6441V49.4364C45.287 47.7772 45.6367 47.4462 46.8052 47.4462C47.6672 47.4462 49.1434 47.8767 52.5891 51.1988C56.5264 55.1357 57.1751 56.9027 59.3902 56.9027H65.1973C66.8565 56.9027 67.6861 56.0731 67.2074 54.4359C66.684 52.8041 64.8041 50.4373 62.3095 47.6308C60.956 46.0309 58.9256 44.3082 58.3109 43.4471C57.4493 42.3396 57.6953 41.8476 58.3109 40.8637C58.3109 40.8637 65.3856 30.897 66.124 27.5131V27.5127Z" fill="white"/>
</g>
</g>
<defs>
<clipPath id="clip0">
<rect width="79.6225" height="79.6225" fill="white" transform="translate(0.989746 0.085022)"/>
</clipPath>
</defs>
</svg>
